HIERARCHY
ROOT Hips
{
  OFFSET -125.086 92.215 135.881
  CHANNELS 6 Xposition Yposition Zposition Zrotation Xrotation Yrotation
  JOINT LeftUpLeg
  {
    OFFSET 8.64259 1.95398 -2.38835
    CHANNELS 3 Zrotation Xrotation Yrotation
    JOINT LeftLeg
    {
      OFFSET 43.7702 0 0
      CHANNELS 3 Zrotation Xrotation Yrotation
      JOINT LeftFoot
      {
        OFFSET 40.6238 0 0
        CHANNELS 3 Zrotation Xrotation Yrotation
        JOINT LeftToeBase
        {
          OFFSET 12.7242 0 0
          CHANNELS 3 Zrotation Xrotation Yrotation
          End Site
          {
            OFFSET 0 0 0
          }
        }
      }
    }
  }
  JOINT RightUpLeg
  {
    OFFSET -8.2249 1.95398 -2.59336
    CHANNELS 3 Zrotation Xrotation Yrotation
    JOINT RightLeg
    {
      OFFSET 43.5653 0 0
      CHANNELS 3 Zrotation Xrotation Yrotation
      JOINT RightFoot
      {
        OFFSET 40.6238 0 0
        CHANNELS 3 Zrotation Xrotation Yrotation
        JOINT RightToeBase
        {
          OFFSET 12.7242 0 0
          CHANNELS 3 Zrotation Xrotation Yrotation
          End Site
          {
            OFFSET 0 0 0
          }
        }
      }
    }
  }
  JOINT Spine
  {
    OFFSET 0.165834 0.87714 6.61349
    CHANNELS 3 Zrotation Xrotation Yrotation
    JOINT Spine1
    {
      OFFSET 7.38963 1.71661e-005 0
      CHANNELS 3 Zrotation Xrotation Yrotation
      JOINT Spine2
      {
        OFFSET 11.9445 1.14441e-005 0
        CHANNELS 3 Zrotation Xrotation Yrotation
        JOINT Spine3
        {
          OFFSET 14.7254 4.19617e-005 0
          CHANNELS 3 Zrotation Xrotation Yrotation
          JOINT Spine4
          {
            OFFSET 10.9679 0 0
            CHANNELS 3 Zrotation Xrotation Yrotation
            JOINT RightShoulder
            {
              OFFSET 2.46616 -1.6653 3.69651
              CHANNELS 3 Zrotation Xrotation Yrotation
              JOINT RightArm
              {
                OFFSET 13.0012 0 0
                CHANNELS 3 Zrotation Xrotation Yrotation
                JOINT RightForeArm
                {
                  OFFSET 28.7848 1.52588e-005 0
                  CHANNELS 3 Zrotation Xrotation Yrotation
                  JOINT RightHand
                  {
                    OFFSET 26.5688 1.52588e-005 0
                    CHANNELS 3 Zrotation Xrotation Yrotation
                    End Site
                    {
                      OFFSET 0 0 0
                    }
                  }
                }
              }
            }
            JOINT LeftShoulder
            {
              OFFSET 2.38034 -1.29275 -3.7523
              CHANNELS 3 Zrotation Xrotation Yrotation
              JOINT LeftArm
              {
                OFFSET 16.3182 6.10352e-005 0
                CHANNELS 3 Zrotation Xrotation Yrotation
                JOINT LeftForeArm
                {
                  OFFSET 27.0901 0 0
                  CHANNELS 3 Zrotation Xrotation Yrotation
                  JOINT LeftHand
                  {
                    OFFSET 24.5451 1.52588e-005 0
                    CHANNELS 3 Zrotation Xrotation Yrotation
                    End Site
                    {
                      OFFSET 0 0 0
                    }
                  }
                }
              }
            }
            JOINT Neck
            {
              OFFSET 5.0226 -0.0266342 0
              CHANNELS 3 Zrotation Xrotation Yrotation
              JOINT Head
              {
                OFFSET 6.69363 2.86102e-005 0
                CHANNELS 3 Zrotation Xrotation Yrotation
                End Site
                {
                  OFFSET 0 0 0
                }
              }
            }
          }
        }
      }
    }
  }
}
MOTION
Frames:	9
Frame Time:	0.0416667
-360.229 59.7963 3.45711 -38.4258 0.761747 84.2205 11.9575 -5.50931 -109.538 -109.12 15.9434 7.16072 126.984 2.23964 13.4523 2.95721 -4.39524 18.9354 -33.4025 -30.9937 -105.983 -82.0022 -31.3269 16.6067 57.3597 -7.81625 -3.26463 45.4716 8.10532 137.247 -0.854536 9.06782 -108.884 5.70287 -9.43111 -37.0499 -6.44026 -10.9447 -36.6872 -24.8952 1.28043 -38.0457 -4.88258 1.28045 -38.0457 153.699 -38.8963 0.0415762 68.5729 66.6649 16.0944 -140.952 12.966 -135.004 55.5854 4.98033 4.2731 -78.8156 29.5712 23.563 -30.152 30.1753 -75.0679 161.09 62.4636 -179.94 45.7228 -18.271 -43.8311 -27.4965 -34.6774 -142.207 91.929 47.2977 66.5648 
-361.397 59.4446 3.1318 -38.5285 1.0269 84.0054 11.5256 -5.99778 -107.358 -109.654 16.2761 5.75328 129.339 0.919172 11.417 1.31735 -3.95706 17.3616 -33.4957 -32.1576 -106.172 -85.8244 -27.6273 15.6461 58.7708 -11.5061 0.351275 44.6257 6.59749 136.933 -0.885921 9.04351 -108.881 5.74153 -9.49869 -37.0403 -6.40088 -11.0119 -36.6751 -24.858 1.21257 -38.0527 -4.84534 1.21256 -38.0527 153.738 -38.9356 0.0590867 66.8035 67.4316 16.9136 -140.096 14.1302 -135.534 55.5009 4.82668 4.00255 -79.277 29.0367 23.4002 -32.8818 29.9816 -73.6127 163.717 59.8777 -179.952 47.1057 -19.0552 -44.2255 -27.4386 -34.7269 -142.081 91.4957 47.1064 66.8725 
-364.706 58.4511 2.21153 -38.7778 1.79735 83.4084 10.4231 -7.08243 -100.479 -110.907 18.5278 1.64174 134.316 -1.81196 5.86965 -2.77647 -2.83301 13.8696 -33.7569 -35.2255 -106.592 -96.7885 -12.8788 13.1222 66.2246 -24.5113 16.4011 43.1306 3.56086 133.887 -0.980965 8.97275 -108.871 5.85285 -9.70278 -37.012 -6.28737 -11.2149 -36.6392 -24.751 1.00772 -38.0746 -4.73835 1.00769 -38.0745 153.82 -39.0143 0.0999953 61.4994 69.5117 19.579 -137.574 17.3446 -136.94 55.4729 4.2997 3.02155 -80.5383 27.5784 22.9413 -40.495 28.9969 -69.556 171.182 53.2026 -179.978 50.8125 -21.0994 -45.0235 -27.2647 -34.8965 -141.754 90.1778 46.5563 67.8367 
-369.896 56.9462 0.753411 -39.0697 3.05594 82.5081 8.94052 -8.6037 -88.4359 -111.673 25.2798 -5.44436 137.989 -3.19859 -2.7316 -7.83102 -1.45976 10.4344 -34.0582 -39.4954 -106.832 -110.783 8.95052 10.8746 91.5996 -44.0413 51.4696 44.6581 3.37415 121.291 -1.14308 8.85718 -108.855 6.03274 -10.0497 -36.9651 -6.10373 -11.5599 -36.5794 -24.5786 0.659899 -38.113 -4.56593 0.659902 -38.113 153.892 -39.0752 0.142825 52.2205 72.4308 24.8736 -133.371 22.0795 -138.872 55.9959 3.20682 0.907459 -82.4245 25.4053 22.2347 -51.8978 26.2181 -63.6059 -177.246 43.9491 179.994 56.1465 -23.8011 -45.4587 -26.9892 -35.1816 -141.302 87.9651 45.636 69.4934 
-376.855 55.2866 -1.28555 -39.2714 4.81801 81.3744 6.90105 -7.87327 -72.0364 -108.592 35.7379 -16.8213 136.638 -2.20223 -14.673 -12.7969 -0.23806 7.99505 -33.7757 -43.9283 -106.892 -122.032 16.7598 8.78494 138.433 -57.5232 95.3379 53.535 9.73887 96.8845 -1.37798 8.69842 -108.832 6.27674 -10.5497 -36.8969 -5.85414 -12.0572 -36.4925 -24.3464 0.158355 -38.168 -4.33373 0.158357 -38.168 153.93 -39.1024 0.169181 37.9878 75.4833 34.1191 -127.563 27.6767 -140.797 57.402 1.25282 -2.78117 -84.7906 22.6948 21.329 -65.2697 20.6796 -57.1 -162.951 32.8139 179.97 62.3843 -26.4626 -44.9415 -26.6525 -35.5091 -140.786 84.9135 44.2583 71.7927 
-385.549 54.2833 -3.92004 -39.2017 7.13133 80.0463 -0.934547 22.3346 -32.9358 -32.7693 26.9208 -83.5844 96.0038 9.03672 -23.1482 -17.3029 0.658062 6.57101 -31.2129 -47.3808 -106.208 -130.168 8.97773 5.72878 -169.107 -64.9751 141.336 62.6531 9.36532 72.3224 -1.6945 8.50109 -108.801 6.57478 -11.2173 -36.7992 -5.54818 -12.721 -36.3697 -24.067 -0.512767 -38.2354 -4.05432 -0.512754 -38.2354 153.976 -39.1684 0.173741 18.1973 77.8152 48.2232 -120.653 33.4297 -141.934 59.4964 -1.86616 -8.25962 -87.5297 19.5798 20.2826 -78.4231 12.2144 -51.6125 -147.997 19.6387 179.952 68.7422 -28.5489 -43.4517 -26.3225 -35.729 -140.248 81.1854 42.2706 74.5454 
-395.411 54.541 -7.04069 -38.5959 10.0683 78.4773 -27.7792 39.2258 -12.2147 86.7397 -35.8063 -97.1451 61.5672 -8.03673 70.157 -21.2512 1.21414 5.90615 -22.2044 -49.54 -100.577 -137.913 8.52549 0.746543 -137.853 -61.5309 168.861 60.6891 5.8177 57.6068 -2.10065 10.4479 -110.575 4.9701 -12.8671 -41.3068 -7.36484 -14.479 -40.8317 -23.8731 -1.57129 -43.0149 -3.8604 -1.57128 -43.0149 154.688 -40.773 -0.19392 -7.9143 77.9665 67.9 -113.827 38.58 -141.298 61.471 -6.21397 -15.3459 -91.8674 14.6954 19.0971 -91.9743 -4.09364 -47.6272 -131.694 -1.13763 179.935 74.7067 -29.7849 -41.2282 -29.1091 -30.6203 -139.432 81.1971 37.5208 73.2718 
-405.344 55.8088 -10.3157 -37.0606 13.7105 76.4245 -36.7456 33.7297 -8.4873 75.6319 -30.1222 -97.487 65.8826 -11.1157 58.7984 -24.5793 1.49804 5.71068 -12.8796 -47.6103 -93.1945 -144.685 20.5505 -3.46904 -135.759 -57.1456 165.395 49.4187 1.0108 49.161 2.35989 3.78176 -78.4542 10.3217 8.64043 20.5131 -1.21067 9.56632 20.1406 -25.2712 1.69094 21.9804 -5.25852 1.69093 21.9804 146.486 -23.5759 4.06957 62.2145 83.6226 -3.65836 -109.307 44.3488 -138.035 62.1004 -11.4717 -23.7481 -77.8309 30.347 19.4443 -48.5989 36.552 -89.6109 -163.102 46.236 179.966 73.7459 -33.1927 -45.9194 113.499 -74.9357 -17.5694 26.4556 23.9257 126.737 
-414.327 57.4331 -13.2912 -34.05 18.0748 73.3184 -46.1825 31.8765 -3.73501 73.4427 -28.7365 -98.299 69.6349 -11.2408 55.8541 -27.2618 1.61442 5.73895 -12.2422 -39.0713 -89.9897 -150.26 39.6896 -5.11289 -154.513 -53.5927 138.604 32.9084 -3.14889 41.3571 2.67763 11.8632 -74.5958 0.627555 11.0154 30.549 -11.3427 12.2892 30.0999 -31.0968 1.85072 32.2455 -11.0841 1.85073 32.2455 156.298 -33.6609 7.64481 168.263 52.4936 -131.086 -93.4164 46.6085 -147.531 61.4867 -15.7414 -30.9079 -71.9406 38.1224 30.4984 -2.55295 -0.0789242 -133.142 -10.3698 84.3169 -0.157973 70.0186 -34.9455 -50.8264 134.134 23.9062 22.7201 -5.45314 -53.3372 119.132 
